<svg xmlns="http://www.w3.org/2000/svg" id="uuid-7190d790-0dca-4a11-9c22-b86754ef7966" viewBox="0 0 398.07 397.71"><path d="M397.59,3.73V0l-3.52,1.3c-8.7,3.27-213.45,80.93-213.45,138.82v9.4c-20.31-21.13-55.14-44.86-103.72-70.62C37.95,58.23,4.21,43.92,3.88,43.77l-3.61-1.52v3.91c0,.82-.27,82.05-.27,148.28,0,62.29,47.19,94.96,47.68,95.3l162.44,107.97v-68.47l138.1-87.81c.48-.3,49.86-31.34,49.86-92.27s-.52-144.64-.52-145.49l.03.06ZM321.17,215.21l-110.94,70.93c0-13.37-.12-122.43-.12-131.79,0-16.79,27.1-40.43,78.32-68.35,32.4-17.64,65.17-31.86,75.87-36.37-.12,13.85-.42,61.41,0,97.09.52,40.5-42.74,68.2-43.19,68.47l.06.03ZM34.34,197.48c1.52-35.55,3.24-83.23,3.76-97.33,43.22,22.19,143.46,79.2,143.04,105.42-.21,13.34-.27,50.07-.33,82.51-.03,20.07-.06,38.04-.12,46.38l-106.18-70.2c-.42-.27-41.89-26.37-40.16-66.74v-.03Z" fill="#7ab929"></path></svg>